<?xml version="1.0" encoding="UTF-8"?>
<svg id="Calque_1" xmlns="http://www.w3.org/2000/svg" version="1.1" viewBox="0 0 192 192">
  <!-- Generator: Adobe Illustrator 29.6.0, SVG Export Plug-In . SVG Version: 2.1.1 Build 207)  -->
  <defs>
    <style>
      .st0 {
        fill: #ed6a32;
      }

      .st1 {
        fill: #5eacb2;
      }

      .st2 {
        fill: #5facb2;
      }

      .st3 {
        fill: #ed6a33;
      }
    </style>
  </defs>
  <g>
    <path class="st0" d="M39.4,170.2c0,3.6.6,5.8.6,6.6s-.5.9-.8,1c-1,.2-4,.4-5.6.4s-4.2-.2-4.9-.4c-.4,0-.7-.4-.7-.9s.6-4,.6-6.5v-11.8c-.1-.3-.3-.4-.5-.4-.7,0-3.2,3-4,5.3-.2.7-.5.9-1,.9s-1.1-.8-1.5-1.6c-.3-.8-.9-2.9-.9-5.6s2.4-4.9,3.6-5.2c1-.2,4.9-.6,9.7-.6s9.1.3,10.2.6c1.5.5,3.3,1.3,3.3,4.9s-.7,4.8-1,5.4c-.2.6-.8,1.7-1.4,1.7s-1-.3-1.1-.8c-.9-2.2-2.6-5.2-4-5.2s-.3.1-.5.4v11.6Z"/>
    <path class="st0" d="M60.1,163.2c1.6,0,3.5-.7,4.3-.7s1.3.9,1.3,1.7c0,1.3-.7,3.8-1.5,3.8s-.3,0-.4-.2c-.9-.8-2.3-.8-3.8-.8v5.2c2.7,0,5-1.2,6-2.7.2,0,.3-.1.5-.1.8,0,1.4,2,1.4,4.3s-1,4-2,4.2c-1.7.2-5.3.4-9.1.4s-6.5-.2-7.7-.4c-.4,0-.6-.3-.6-.8s.6-4,.6-6.5v-10.8c0-2.5-.3-4.9-1-6,0-.8,1.1-1.5,2.7-1.8,2.3-.3,4.6-.4,6.9-.4s4.7,0,7.1.4c.9,0,2.6,1.4,2.6,3.4,0,3.5-1.3,5.6-1.7,5.6s-.6-.2-.8-.5c-.5-.6-2.6-1.7-4.8-2v4.8Z"/>
    <path class="st0" d="M87.7,166.1c2,3.6,6.3,8.5,7.7,9.6,0,1.8-3.4,2.8-5.6,2.8s-4-.5-4.6-1c-1.1-1-3.3-6.3-4.2-10.4v3.1c0,3.6.5,6.1.5,6.9s-.3.5-.7.7c-.7.2-2.4.4-5.1.4s-4.8-.2-5.5-.4c-.3,0-.5-.3-.5-.8s.4-4.1.4-6.6v-10.7c0-2.5-.3-4.5-.8-5.7.5-1.2,3.3-2.6,6.4-2.6h5.3c7.1,0,12.1,2.7,12.1,7.1s-2.3,6.8-5.4,7.6ZM80.9,157.4v7.5c1.1-.5,2.7-1.8,2.7-4s-1.1-3.1-2.7-3.5Z"/>
    <path class="st0" d="M105,151.4c3.8,0,7.3,2,8.3,4.1.6,1.2,5.9,17.9,6.4,18.9.3.8,1.1,1.7,1.1,2.5s-1.8,1.3-5.8,1.3-4.6-.1-5.3-.2c-.7-.1-.9-.3-.9-.7s.1-.6.1-.8,0-.5,0-.7l-.7-2.1h-5.5l-.5,1.6c-.2.4-.2.8-.2,1.1s0,.8,0,1-.4.6-.7.6c-.3,0-1.1.2-2.5.2s-2.5,0-2.9-.1c-.3,0-.6-.2-.6-.4s.3-.5.5-1.1c.3-.8,6.3-18.8,6.5-19.5.3-1.3.6-2.4.7-3.4.1-1.1,1-2.1,2.1-2.1ZM105.4,162.4l-1.6,7.4h3.1l-1.5-7.4Z"/>
    <path class="st0" d="M122.8,151.8c4.8,0,7.4,3.9,8.4,8.5.8,3.4,1.1,8.9,1.5,12.1.6-1.7,1.6-5.1,1.6-9.2s-1-5.7-2.5-7.2c-.2-.2-.3-.3-.3-.5,0-1.4,3-4.4,6.7-4.4s7.5,2.6,7.5,7.9c0,10.8-7.1,19.6-13.7,19.6s-9-5.3-11.2-12.5c-1.1-3.7-2.9-9.1-4.1-11,0-1.8,3.1-3.1,6.1-3.1Z"/>
    <path class="st0" d="M153.5,151.4c3.8,0,7.3,2,8.3,4.1.6,1.2,5.9,17.9,6.4,18.9.3.8,1.1,1.7,1.1,2.5s-1.8,1.3-5.8,1.3-4.6-.1-5.3-.2c-.7-.1-.9-.3-.9-.7s.1-.6.1-.8,0-.5,0-.7l-.7-2.1h-5.5l-.5,1.6c-.2.4-.2.8-.2,1.1s0,.8,0,1-.4.6-.7.6c-.3,0-1.1.2-2.5.2s-2.5,0-2.9-.1c-.3,0-.6-.2-.6-.4s.3-.5.5-1.1c.3-.8,6.3-18.8,6.5-19.5.3-1.3.6-2.4.7-3.4.1-1.1,1-2.1,2.1-2.1ZM153.9,162.4l-1.6,7.4h3.1l-1.5-7.4Z"/>
  </g>
  <g>
    <path class="st0" d="M101.6,83.6c-10.1-.1-11.8,1.2-13.1,1.8-4.5,2-7.2,5.9-7.2,13.3s1.4,10.7,1.9,12.3c2.4,6.9,7.1,5.8,7.4,5.6,0,0,.4,13.7.4,15.3s-1,2-1.8,2.1c-2.1.3-8.6.8-12.1.8s-9-.5-10.4-.8c-.8-.2-1.6-.8-1.6-2s1.2-8.5,1.2-13.8v-25.2c-.2-.6-.6-.8-1-.8-1.4,0-6.9,6.4-8.6,11.4-.5,1.4-1.2,1.9-2.2,1.9s-2.4-1.7-3.1-3.3c-.7-1.6-2-6.1-2-11.9s5.1-10.6,7.7-11c2.2-.4,10.5-1.3,20.8-1.3s15.4-.3,18.9.3c1.3,3.5,4.6,5.4,4.6,5.4Z"/>
    <path class="st1" d="M140.2,98c0,5.4-1.5,9.7-2,11.1-.5,1.3-1.7,3.4-2.9,3.4s-1.9-.7-2.3-1.7c-1.8-4.5-5.3-10.5-8.1-10.5s-.7.2-.9.8v23.7c0,7.2,1.2,11.8,1.2,13.3s-.9,1.9-1.7,2c-2,.3-8.2.8-11.5.8s-8.6-.5-9.9-.8c-.8-.1-1.5-.8-1.5-1.8s1.2-8.1,1.2-13.2v-24c-.2-.6-.6-.8-.9-.8-1.3,0-6.6,6.1-8.2,10.8-.3.8-.6,1.3-1.1,1.5-.3.2-.6.3-1,.3-.9,0-2.3-1.6-3-3.2-.7-1.6-1.8-5.9-1.8-11.3s4.8-10.1,7.3-10.5c1.7-.4,7.4-1,14.8-1.2,1.6,0,3.3,0,5,0,9.8,0,18.6.6,20.8,1.3,3,1,6.7,2.6,6.7,10.1Z"/>
    <path class="st0" d="M90.6,61.4c0,7.4-6,13.4-13.4,13.4s-3.3-.3-5-1h-.1c-3.6-1.5-6.4-4.4-7.6-8.1-.5-1.4-.7-2.8-.7-4.3,0-7.4,6-13.4,13.4-13.4s13.4,6,13.4,13.4Z"/>
    <path class="st1" d="M126.4,70.2c0,7.4-6,13.4-13.4,13.4s-3.3-.3-5-1h-.1c-3.6-1.5-6.4-4.4-7.6-8.1-.5-1.4-.7-2.8-.7-4.3,0-7.4,6-13.4,13.4-13.4s13.4,6,13.4,13.4Z"/>
  </g>
  <path class="st3" d="M31.6,127.2c-18.9-39.3,4-86.6,46.2-97,42.5-10.7,84.9,20.2,87,64.1.6,11.6-1.8,23.3-7,33.7,22-52.3-23.9-107.7-79.2-94.4-40.7,9.7-63.2,54.9-47,93.6h0Z"/>
  <path class="st2" d="M23.3,128.1C1.9,85.5,25.2,33.1,70.5,18.9c49.7-16,101.9,19.7,104,72.1.5,13.2-2.3,26.6-8.4,38.1,7.6-18.8,7.8-40,.5-58.8C150.2,27.6,99.7,8.4,59.2,29.8,23.9,48.3,8.8,91.1,23.3,128.1h0Z"/>
</svg>