<svg width="14" height="15" viewBox="0 0 14 15" fill="none" xmlns="http://www.w3.org/2000/svg">
<path d="M11.5756 1.73291H2.42437C1.63771 1.73291 1 2.53535 1 3.52521V12.6453C1 13.6352 1.63771 14.4376 2.42437 14.4376H11.5756C12.3623 14.4376 13 13.6352 13 12.6453V3.52521C13 2.53535 12.3623 1.73291 11.5756 1.73291Z" stroke="#1D1D1B" stroke-width="0.86" stroke-miterlimit="10"/>
<path d="M1 5.32153H13" stroke="#1D1D1B" stroke-width="1.1" stroke-miterlimit="10"/>
<path d="M10.605 0H10.4569C10.2046 0 9.99999 0.257419 9.99999 0.574962V2.68448C9.99999 3.00202 10.2046 3.25944 10.4569 3.25944H10.605C10.8574 3.25944 11.062 3.00202 11.062 2.68448V0.574962C11.062 0.257419 10.8574 0 10.605 0Z" fill="#1D1D1B"/>
<path d="M3.54307 0H3.39496C3.1426 0 2.93803 0.257419 2.93803 0.574962V2.68448C2.93803 3.00202 3.1426 3.25944 3.39496 3.25944H3.54307C3.79543 3.25944 4 3.00202 4 2.68448V0.574962C4 0.257419 3.79543 0 3.54307 0Z" fill="#1D1D1B"/>
<path d="M3.72584 7.91086C3.72584 7.54952 3.49304 7.25659 3.20588 7.25659C2.91871 7.25659 2.68592 7.54952 2.68592 7.91086V8.25187C2.68592 8.61321 2.91871 8.90614 3.20588 8.90614C3.49304 8.90614 3.72584 8.61321 3.72584 8.25187V7.91086Z" fill="#1D1D1B"/>
<path d="M6.25631 7.91086C6.25631 7.54952 6.02352 7.25659 5.73635 7.25659C5.44919 7.25659 5.21639 7.54952 5.21639 7.91086V8.25187C5.21639 8.61321 5.44919 8.90614 5.73635 8.90614C6.02352 8.90614 6.25631 8.61321 6.25631 8.25187V7.91086Z" fill="#1D1D1B"/>
<path d="M8.78676 7.91086C8.78676 7.54952 8.55396 7.25659 8.2668 7.25659C7.97963 7.25659 7.74684 7.54952 7.74684 7.91086V8.25187C7.74684 8.61321 7.97963 8.90614 8.2668 8.90614C8.55396 8.90614 8.78676 8.61321 8.78676 8.25187V7.91086Z" fill="#1D1D1B"/>
<path d="M11.3172 7.91086C11.3172 7.54952 11.0844 7.25659 10.7973 7.25659C10.5101 7.25659 10.2773 7.54952 10.2773 7.91086V8.25187C10.2773 8.61321 10.5101 8.90614 10.7973 8.90614C11.0844 8.90614 11.3172 8.61321 11.3172 8.25187V7.91086Z" fill="#1D1D1B"/>
<path d="M3.72584 11.3166C3.72584 10.9553 3.49304 10.6624 3.20588 10.6624C2.91871 10.6624 2.68592 10.9553 2.68592 11.3166V11.6576C2.68592 12.019 2.91871 12.3119 3.20588 12.3119C3.49304 12.3119 3.72584 12.019 3.72584 11.6576V11.3166Z" fill="#1D1D1B"/>
<path d="M6.25631 11.3166C6.25631 10.9553 6.02352 10.6624 5.73635 10.6624C5.44919 10.6624 5.21639 10.9553 5.21639 11.3166V11.6576C5.21639 12.019 5.44919 12.3119 5.73635 12.3119C6.02352 12.3119 6.25631 12.019 6.25631 11.6576V11.3166Z" fill="#1D1D1B"/>
<path d="M8.78676 11.3166C8.78676 10.9553 8.55396 10.6624 8.2668 10.6624C7.97963 10.6624 7.74684 10.9553 7.74684 11.3166V11.6576C7.74684 12.019 7.97963 12.3119 8.2668 12.3119C8.55396 12.3119 8.78676 12.019 8.78676 11.6576V11.3166Z" fill="#1D1D1B"/>
<path d="M11.3172 11.3166C11.3172 10.9553 11.0844 10.6624 10.7973 10.6624C10.5101 10.6624 10.2773 10.9553 10.2773 11.3166V11.6576C10.2773 12.019 10.5101 12.3119 10.7973 12.3119C11.0844 12.3119 11.3172 12.019 11.3172 11.6576V11.3166Z" fill="#1D1D1B"/>
</svg>
