<svg width="218" height="224" viewBox="0 0 218 224" fill="none" xmlns="http://www.w3.org/2000/svg">
<path d="M33.3043 212.584C33.379 215.577 33.6332 218.563 34.0655 221.526C34.0704 221.855 33.9581 222.174 33.7489 222.427C33.5396 222.679 33.247 222.849 32.9236 222.906C31.5915 222.906 27.4522 223.429 25.2161 223.429C23.0022 223.409 20.7924 223.234 18.6028 222.906C18.3091 222.849 18.046 222.687 17.8623 222.451C17.6786 222.215 17.5867 221.92 17.6037 221.622C17.6037 220.813 18.3649 216.199 18.3649 212.774V196.696C18.3649 196.315 18.0319 196.172 17.7464 196.172C15.2239 197.964 13.3138 200.489 12.275 203.403C11.942 204.307 11.5138 204.64 10.8477 204.64C10.1816 204.64 9.32521 203.546 8.84944 202.499C7.92672 200.116 7.44315 197.586 7.42211 195.031C7.28931 193.49 7.68929 191.95 8.55522 190.669C9.42115 189.388 10.7006 188.442 12.1799 187.991C16.5924 187.369 21.0457 187.083 25.5016 187.134C30.1489 186.995 34.7992 187.282 39.3942 187.991C41.44 188.657 43.914 189.751 43.914 194.745C43.9791 197.217 43.6087 199.68 42.8198 202.023C42.5343 202.832 41.6779 204.307 40.8691 204.307C40.5266 204.308 40.1921 204.203 39.9111 204.008C39.6302 203.812 39.4164 203.534 39.299 203.213C38.1096 200.168 35.7783 196.172 33.8752 196.172C33.8752 196.172 33.3994 196.172 33.2567 196.696L33.3043 212.584Z" fill="#ED6A32"/>
<path d="M61.3749 202.975C63.5159 202.975 66.1327 202.071 67.2746 202.071C68.4164 202.071 69.1301 203.308 69.1301 204.354C69.1301 206.209 68.2261 209.492 67.1318 209.492C67.036 209.5 66.9396 209.487 66.8493 209.454C66.759 209.421 66.6768 209.369 66.6085 209.301C65.0517 208.317 63.2042 207.898 61.3749 208.112V215.295C62.9277 215.362 64.4743 215.061 65.8883 214.416C67.3023 213.771 68.5436 212.801 69.5107 211.585C69.7305 211.54 69.957 211.54 70.1768 211.585C71.2235 211.585 72.0323 214.296 72.0323 217.388C72.0323 221.193 70.7477 222.858 69.368 223.096C65.2868 223.459 61.19 223.618 57.093 223.572C53.5969 223.596 50.1022 223.421 46.6259 223.049C46.1026 223.049 45.8647 222.573 45.8647 221.955C45.8647 221.336 46.6259 216.437 46.6259 213.059V198.123C46.7646 195.332 46.3106 192.544 45.2938 189.941C45.2938 188.894 46.8162 187.848 48.9572 187.515C52.1114 187.101 55.2922 186.926 58.4727 186.992C61.653 186.936 64.8332 187.111 67.9882 187.515C69.035 187.785 69.9588 188.403 70.6074 189.267C71.2559 190.132 71.5907 191.192 71.5565 192.272C71.5565 197.029 69.7962 199.883 69.2252 199.883C68.7601 199.815 68.3364 199.578 68.0358 199.217C66.1484 197.701 63.8737 196.745 61.4701 196.458L61.3749 202.975Z" fill="#ED6A32"/>
<path d="M99.0563 206.97C101.872 211.818 105.364 216.238 109.428 220.099C109.428 222.573 104.67 224 101.768 224C99.583 224.116 97.4085 223.622 95.488 222.573C92.6526 218.239 90.6966 213.39 89.7311 208.302V212.536C89.808 215.717 90.0462 218.893 90.4448 222.05C90.4448 222.525 89.969 222.763 89.4457 222.953C87.1384 223.366 84.7948 223.542 82.4518 223.477C79.9514 223.519 77.4521 223.344 74.9821 222.953C74.7516 222.887 74.5527 222.74 74.4216 222.539C74.2906 222.338 74.2362 222.097 74.2684 221.859C74.2684 221.003 74.8394 216.246 74.8394 212.821V198.17C75.0371 195.501 74.7139 192.82 73.8878 190.274C74.9501 189.029 76.2944 188.056 77.8088 187.435C79.3232 186.815 80.964 186.565 82.5945 186.706H89.8263C99.3418 186.706 106.383 190.417 106.383 196.22C106.572 198.579 105.948 200.931 104.616 202.887C103.283 204.842 101.321 206.283 99.0563 206.97ZM89.8738 195.031V205.258C90.9592 204.814 91.8874 204.056 92.5399 203.081C93.1925 202.107 93.5397 200.96 93.5373 199.788C93.5665 198.695 93.2182 197.625 92.551 196.758C91.8837 195.892 90.9383 195.282 89.8738 195.031Z" fill="#ED6A32"/>
<path d="M122.797 186.897C124.994 186.807 127.179 187.264 129.156 188.227C131.132 189.19 132.838 190.629 134.121 192.415C134.882 194.127 142.209 216.817 142.875 218.244C143.541 219.671 144.302 220.527 144.302 221.669C144.302 222.811 141.924 223.429 136.357 223.429C133.926 223.483 131.494 223.372 129.078 223.096C128.126 223.096 127.841 222.668 127.841 222.097C127.841 221.526 127.841 221.336 127.841 220.956C127.869 220.639 127.869 220.321 127.841 220.004L126.937 217.198H119.467L118.706 219.433C118.523 219.937 118.426 220.468 118.42 221.003C118.42 221.431 118.42 222.097 118.42 222.383C118.42 222.668 117.897 223.144 117.421 223.191C116.353 223.393 115.272 223.52 114.186 223.572C112.857 223.703 111.518 223.703 110.189 223.572C109.761 223.572 109.381 223.572 109.381 223.001C109.381 222.43 109.761 222.288 110.142 221.431C110.522 220.575 118.706 195.792 118.991 194.793C119.412 193.23 119.73 191.641 119.943 190.036C119.94 189.251 120.231 188.492 120.759 187.911C121.288 187.33 122.015 186.968 122.797 186.897ZM123.273 201.976L121.132 212.06H125.319L123.273 201.976Z" fill="#ED6A32"/>
<path d="M147.11 187.467C153.675 187.467 157.148 192.748 158.528 199.027C159.622 203.783 160.051 211.204 160.669 215.58C162.112 211.532 162.867 207.272 162.905 202.975C163.086 201.179 162.869 199.366 162.268 197.664C161.668 195.962 160.7 194.413 159.432 193.128C159.194 192.941 159.04 192.667 159.004 192.367C159.737 190.552 161.012 189.007 162.655 187.943C164.298 186.879 166.23 186.347 168.186 186.421C169.606 186.308 171.034 186.514 172.363 187.026C173.693 187.538 174.89 188.342 175.868 189.378C176.845 190.415 177.577 191.657 178.01 193.014C178.442 194.371 178.565 195.808 178.368 197.219C178.368 211.965 168.852 223.952 159.67 223.952C151.915 223.952 147.3 216.674 144.302 206.828C142.854 201.667 141.008 196.626 138.784 191.749C138.784 189.275 142.97 187.467 147.11 187.467Z" fill="#ED6A32"/>
<path d="M189.073 186.897C191.264 186.797 193.446 187.251 195.416 188.215C197.386 189.179 199.083 190.623 200.349 192.415C201.158 194.127 208.485 216.817 209.103 218.244C209.722 219.671 210.578 220.528 210.578 221.669C210.578 222.811 208.151 223.429 202.632 223.429C200.201 223.483 197.769 223.372 195.353 223.096C194.402 223.096 194.069 222.668 194.069 222.097C194.069 221.526 194.069 221.336 194.069 220.956C194.097 220.639 194.097 220.321 194.069 220.004L193.165 217.198H185.552L184.838 219.433C184.639 219.934 184.527 220.465 184.505 221.003C184.505 221.431 184.505 222.097 184.505 222.383C184.505 222.668 183.982 223.144 183.506 223.191C182.366 223.274 181.221 223.274 180.081 223.191C178.768 223.323 177.445 223.323 176.132 223.191C175.704 223.191 175.323 223.191 175.323 222.621C175.323 222.05 175.704 221.907 176.037 221.051C176.37 220.195 184.648 195.411 184.886 194.412C185.331 192.855 185.649 191.264 185.838 189.656C185.943 188.878 186.331 188.167 186.928 187.658C187.525 187.149 188.289 186.878 189.073 186.897ZM189.549 201.976L187.408 212.06H191.595L189.549 201.976Z" fill="#ED6A32"/>
<path d="M118.182 94.2807C104.337 94.2807 102.006 95.9456 100.246 96.7067C94.1558 99.4657 90.3972 104.651 90.3972 114.83C90.412 120.547 91.3108 126.227 93.0615 131.67C96.2968 141.183 102.577 139.661 103.148 139.376C103.719 139.09 103.719 158.118 103.719 160.353C103.737 161.057 103.494 161.742 103.038 162.278C102.581 162.813 101.943 163.161 101.245 163.255C95.7803 163.913 90.2861 164.294 84.7831 164.397C80.0039 164.362 75.2337 163.981 70.5098 163.255C69.8836 163.161 69.3157 162.835 68.919 162.341C68.5224 161.848 68.326 161.223 68.3688 160.591C68.3688 158.784 70.034 148.937 70.034 141.564V107.219C69.701 106.411 69.2252 106.078 68.7019 106.078C66.8464 106.078 59.1864 114.783 56.9502 121.633C56.3317 123.535 55.3802 124.201 53.9529 124.201C52.5255 124.201 50.67 121.87 49.7185 119.444C47.7962 114.258 46.876 108.753 47.0065 103.224C46.701 99.8744 47.5883 96.5248 49.5121 93.7659C51.4358 91.0071 54.2723 89.0161 57.5212 88.1444C66.9796 86.8442 76.5207 86.2401 86.0677 86.3368C94.6957 86.0089 103.335 86.1359 111.95 86.7173C113.198 89.8206 115.375 92.4624 118.182 94.2807Z" fill="#ED6A32"/>
<path d="M170.898 114.164C170.884 119.335 169.933 124.46 168.091 129.291C167.473 131.004 165.76 134.048 164.142 134.048C163.438 134.053 162.75 133.835 162.177 133.425C161.604 133.015 161.176 132.434 160.955 131.765C158.528 125.628 153.723 117.494 149.869 117.494C149.346 117.494 148.918 117.827 148.585 118.588V150.982C148.746 157.083 149.286 163.168 150.202 169.201C150.207 169.866 149.968 170.51 149.529 171.01C149.09 171.51 148.483 171.831 147.823 171.913C142.631 172.575 137.405 172.94 132.17 173.007C127.629 173 123.095 172.634 118.611 171.913C118.022 171.819 117.491 171.508 117.121 171.041C116.751 170.574 116.569 169.985 116.612 169.391C116.612 167.679 118.23 158.308 118.23 151.363V118.208C117.897 117.447 117.469 117.114 116.945 117.114C115.138 117.114 108.001 125.438 105.717 131.955C105.629 132.374 105.457 132.772 105.212 133.123C104.967 133.475 104.653 133.773 104.29 134C103.881 134.269 103.399 134.402 102.91 134.381C101.721 134.381 99.8176 132.145 98.8185 130.052C97.0441 125.079 96.1896 119.824 96.2969 114.545C96.0667 111.38 96.9347 108.233 98.7547 105.633C100.575 103.034 103.235 101.141 106.288 100.274C112.984 99.272 119.739 98.7159 126.509 98.6095H133.36C142.909 98.2976 152.467 98.8869 161.906 100.37C165.855 101.606 170.898 103.794 170.898 114.164Z" fill="#5EACB2"/>
<path d="M103.053 63.9796C103.047 66.3846 102.567 68.7649 101.64 70.9844C100.714 73.204 99.3595 75.2194 97.6542 76.9156C95.9488 78.6117 93.9261 79.9555 91.7013 80.8701C89.4765 81.7847 87.0934 82.2522 84.6879 82.2459C82.3516 82.2359 80.04 81.7672 77.8844 80.8664C75.453 79.8892 73.2624 78.3966 71.4636 76.4914C69.6648 74.5862 68.3006 72.3137 67.4649 69.8305C66.7947 67.953 66.4566 65.9731 66.4658 63.9796C66.4658 59.1099 68.4006 54.4396 71.8447 50.9961C75.2888 47.5527 79.96 45.6182 84.8307 45.6182C89.7013 45.6182 94.3725 47.5527 97.8166 50.9961C101.261 54.4396 103.196 59.1099 103.196 63.9796H103.053Z" fill="#ED6A32"/>
<path d="M151.962 76.1096C151.95 80.9711 150.009 85.6292 146.567 89.0623C143.124 92.4955 138.46 94.4235 133.598 94.4234C131.264 94.4322 128.952 93.9796 126.794 93.0915C124.358 92.1226 122.163 90.6328 120.363 88.7265C118.563 86.8201 117.202 84.5433 116.375 82.0556C115.641 80.158 115.254 78.144 115.233 76.1096C115.233 71.2398 117.168 66.5695 120.612 63.1261C124.056 59.6826 128.727 57.7481 133.598 57.7481C138.468 57.7481 143.139 59.6826 146.584 63.1261C150.028 66.5695 151.962 71.2398 151.962 76.1096Z" fill="#5EACB2"/>
<path d="M22.5042 153.884C15.6407 139.535 12.5928 123.66 13.6547 107.79C14.7341 91.758 19.8573 76.2603 28.5465 62.7428C37.2478 49.1994 49.1838 38.034 63.2781 30.2536C77.4833 22.6708 93.3253 18.6702 109.428 18.5993C125.6 18.8486 141.463 23.0628 155.626 30.8719C159.108 32.8704 162.475 35.0619 165.712 37.4364L170.47 41.0992L174.942 45.1901C177.843 47.9561 180.591 50.8779 183.173 53.9427C185.736 57.0878 188.119 60.3752 190.31 63.7893C198.755 77.345 203.622 92.8216 204.454 108.77C205.286 124.719 202.056 140.618 195.068 154.978C201.156 140.607 203.56 124.943 202.062 109.408C200.865 93.9018 195.74 78.9558 187.17 65.9775C178.73 53.0953 167.305 42.4396 153.866 34.9153C140.237 27.4474 124.969 23.4758 109.428 23.3561C94.0303 23.2918 78.8468 26.9646 65.1812 34.059C51.6548 41.4744 40.0786 51.9888 31.4011 64.7407C22.7725 77.7529 17.4519 92.6747 15.9014 108.21C14.3509 123.745 16.6174 139.424 22.5042 153.884Z" fill="#ED6A32"/>
<path d="M11.1807 155.121C2.93508 138.993 -0.920918 120.98 2.6226e-05 102.891C0.916707 84.4978 6.57083 66.6538 16.4143 51.0886C26.3687 35.4272 40.072 22.4949 56.2842 13.4619C72.7208 4.66301 91.0693 0.0400008 109.714 0C128.364 0.305789 146.651 5.20749 162.953 14.2705C166.956 16.5901 170.817 19.1475 174.514 21.9291L179.986 26.1627L185.076 30.9195L187.598 33.2979L189.882 35.8666L194.639 41.0516L198.731 46.6647C200.03 48.4802 201.222 50.3703 202.299 52.3253C211.841 67.8745 217.217 85.6187 217.909 103.848C218.601 122.078 214.585 140.178 206.248 156.405C212.831 139.999 215.25 122.219 213.29 104.651C211.621 87.3823 205.705 70.7952 196.067 56.3687C186.514 42.0973 173.652 30.347 158.576 22.1193C143.532 14.0041 126.729 9.69602 109.636 9.57164C92.5426 9.44726 75.6789 13.5103 60.5186 21.4058C45.3046 29.4472 32.2497 41.0313 22.4566 55.1794C12.6937 69.7108 6.57238 86.3781 4.60978 103.773C2.64719 121.168 4.90097 138.78 11.1807 155.121Z" fill="#5EACB2"/>
</svg>
