<svg width="118" height="23" viewBox="0 0 118 23" fill="none" xmlns="http://www.w3.org/2000/svg">
<path d="M16.648 5.968V15.696C16.648 18.672 17.128 20.528 17.128 21.168C17.128 21.68 16.744 21.936 16.424 22C15.592 22.128 13.064 22.32 11.72 22.32C10.312 22.32 8.2 22.128 7.656 22C7.336 21.936 7.048 21.68 7.048 21.232C7.048 20.72 7.528 17.904 7.528 15.824V5.968C7.432 5.744 7.304 5.648 7.144 5.648C6.6 5.648 4.456 8.144 3.784 10.096C3.592 10.64 3.336 10.832 2.92 10.832C2.568 10.832 1.992 10.16 1.704 9.52C1.416 8.88 0.936 7.12 0.936 4.88C0.936 2 2.92 0.751999 3.944 0.559999C4.808 0.4 8.04 0.0479984 12.072 0.0479984C16.104 0.0479984 19.688 0.271999 20.584 0.559999C21.832 0.976 23.336 1.648 23.336 4.688C23.336 6.896 22.728 8.656 22.504 9.232C22.312 9.744 21.8 10.64 21.32 10.64C20.808 10.64 20.52 10.352 20.36 9.968C19.624 8.112 18.184 5.648 17.032 5.648C16.872 5.648 16.744 5.744 16.648 5.968ZM32.0838 3.44C37.0758 3.44 40.4358 5.712 40.4358 12.72C40.4358 13.712 38.4518 14.32 35.9878 14.32C34.0678 14.32 31.7958 14.096 30.7718 13.904C30.8998 17.424 31.8598 19.792 32.8838 19.792C33.5878 19.792 33.8438 19.088 33.8438 18.224C33.8438 17.68 33.7478 17.2 33.6198 16.72C34.0998 16.304 34.8678 16.144 35.5078 16.144C37.2998 16.144 39.0598 17.552 39.6358 19.216C38.3558 21.36 35.7638 22.64 31.6678 22.64C26.1318 22.64 22.2598 19.568 22.2598 13.456C22.2598 7.6 26.1638 3.44 32.0838 3.44ZM31.9558 6.448C31.1238 6.448 30.6758 8.848 30.6758 11.984C31.7638 11.984 32.6598 11.824 33.2998 11.568C33.2998 8.336 32.7238 6.448 31.9558 6.448ZM42.5138 17.264V10.448C42.5138 8.816 41.5218 7.696 40.7858 7.376C40.7538 7.312 40.7218 7.216 40.7218 7.12C40.7218 5.232 42.9938 4.048 45.2658 4.048C47.0578 4.048 48.2738 4.816 49.0098 6.544C49.6818 4.816 51.5698 3.44 53.5218 3.44C55.5378 3.44 56.6898 4.496 56.6898 6.224C56.6898 8.208 55.6658 9.552 54.6738 9.904C54.4178 9.36 53.6178 8.912 52.7218 8.912C51.7618 8.912 50.9298 9.936 50.9298 11.056V18C50.9298 19.152 51.3458 20.784 51.3458 21.328C51.3458 21.68 51.0578 22.064 50.8338 22.128C50.1938 22.288 48.3698 22.32 46.6418 22.32C44.6898 22.32 42.9938 22.16 42.5458 21.936C42.3858 21.84 42.2258 21.616 42.2258 21.232C42.2258 20.688 42.5138 18.768 42.5138 17.264ZM66.6545 3.44C71.5185 3.44 75.2945 5.392 75.2945 10.384V17.168C75.2945 18.512 75.7745 19.6 76.0625 19.696C76.2225 19.792 76.3185 20.016 76.3185 20.24C76.3185 21.904 73.4705 22.64 72.3185 22.64C69.7585 22.64 68.7665 21.872 67.9985 20.592C67.1665 21.904 64.7025 22.64 62.0785 22.64C58.8785 22.64 56.3185 21.456 56.3185 18.8C56.3185 16.208 58.2385 14.864 60.2545 14.192C62.1425 13.552 64.2225 13.072 66.8785 13.072C66.8785 8.528 66.1425 6.448 65.2785 6.448C64.4785 6.448 64.0945 7.216 64.0945 8.72C64.0945 9.84 64.3825 10.928 64.6705 11.408C63.9345 12.144 61.9825 12.752 60.2225 12.752C58.4945 12.752 57.1185 11.6 57.1185 9.296C57.1185 5.584 61.7265 3.44 66.6545 3.44ZM64.4465 17.424C64.4465 18.832 64.9265 19.6 65.5345 19.6C66.0465 19.6 66.6865 18.8 66.8785 18.064V14.928C65.6305 14.928 64.4465 16.24 64.4465 17.424ZM75.6457 6.16C75.6457 5.2 77.8218 3.44 81.1498 3.44C84.9258 3.44 85.9498 7.824 86.4618 11.152C86.8778 13.904 87.2618 17.072 87.5178 18.16C87.9978 17.04 88.5418 14.8 88.5418 12.144C88.5418 9.808 87.7738 7.568 86.3658 6.352C86.2058 6.224 86.1098 6.064 86.1098 5.904C86.1098 5.072 88.1578 3.12 90.5898 3.12C93.8538 3.12 96.7978 4.816 96.7978 10.192C96.7978 16.624 90.8458 22.64 86.2378 22.64C83.7738 22.64 81.8218 20.816 80.5418 18.48C79.5498 16.656 78.1738 12.688 77.5338 10.032C77.0858 8.176 76.1578 6.832 75.6457 6.16ZM107.561 3.44C112.425 3.44 116.201 5.392 116.201 10.384V17.168C116.201 18.512 116.681 19.6 116.969 19.696C117.129 19.792 117.225 20.016 117.225 20.24C117.225 21.904 114.377 22.64 113.225 22.64C110.665 22.64 109.673 21.872 108.905 20.592C108.073 21.904 105.609 22.64 102.985 22.64C99.7848 22.64 97.2248 21.456 97.2248 18.8C97.2248 16.208 99.1448 14.864 101.161 14.192C103.049 13.552 105.129 13.072 107.785 13.072C107.785 8.528 107.049 6.448 106.185 6.448C105.385 6.448 105.001 7.216 105.001 8.72C105.001 9.84 105.289 10.928 105.577 11.408C104.841 12.144 102.889 12.752 101.129 12.752C99.4008 12.752 98.0247 11.6 98.0247 9.296C98.0247 5.584 102.633 3.44 107.561 3.44ZM105.353 17.424C105.353 18.832 105.833 19.6 106.441 19.6C106.953 19.6 107.593 18.8 107.785 18.064V14.928C106.537 14.928 105.353 16.24 105.353 17.424Z" fill="black"/>
</svg>
