<svg width="15" height="12" viewBox="0 0 15 12" fill="none" xmlns="http://www.w3.org/2000/svg">
<path d="M14.3086 0.00610352C14.3086 0.00610352 14.2778 0.00610352 14.2586 0.0122119C13.402 0.128272 12.6376 0.38788 12.023 0.894879C11.3009 1.49351 10.5634 2.07991 9.82971 2.67243C9.77209 2.71824 9.67606 2.78544 9.61844 2.77322C9.15749 2.68465 8.70422 2.57775 8.22407 2.47391L6.46863 2.09213C4.83227 1.72257 3.19206 1.35912 1.54802 1.00178C1.40973 0.971235 1.19462 0.952909 1.11012 1.01399C0.841229 1.20335 0 2.00356 0 2.00356L1.27913 2.06464C3.242 2.96564 5.22791 3.87579 7.26761 4.81343C7.0717 4.94782 6.90653 5.05166 6.75672 5.17078C5.71191 5.99847 4.65173 6.82005 3.86428 7.82489C3.72599 8.00203 3.58003 8.03257 3.33803 7.97454C2.61204 7.80351 1.8822 7.64469 1.14853 7.49503C1.0064 7.46754 0.802817 7.4706 0.691421 7.53168C0.483995 7.64469 0.318822 7.81267 0.126761 7.96538C1.01793 8.37465 1.89757 8.78086 2.76568 9.18096C2.68118 9.36726 2.59667 9.51997 2.54289 9.68185C2.47759 9.87121 2.58515 9.95673 2.83099 9.90481C3.03457 9.86205 3.22663 9.7918 3.45711 9.72766C3.96799 10.4301 4.47119 11.1234 5.00896 11.8626C5.14725 11.7373 5.25096 11.6274 5.37772 11.5358C5.59667 11.38 5.65813 11.209 5.57362 10.9799C5.36236 10.4088 5.17798 9.8315 4.97055 9.25731C4.90525 9.08017 4.94366 8.97327 5.14341 8.86637C5.6274 8.60066 6.12292 8.3441 6.55698 8.03257C7.32522 7.48281 8.05506 6.89641 8.80026 6.32527C8.85403 6.28251 8.91549 6.24586 8.98848 6.19394C10.1485 7.79129 11.3009 9.37643 12.4686 10.986L12.5416 12.0061C12.5416 12.0061 13.3367 11.383 13.525 11.2548C13.7977 11.0715 13.8284 10.873 13.7324 10.6134C13.2868 9.37948 12.872 8.14252 12.4187 6.91168L11.8924 5.37541C11.781 5.05166 11.685 4.74319 11.5621 4.44387C11.4968 4.28811 11.5314 4.19037 11.6812 4.07431C12.4341 3.50012 13.1716 2.91066 13.9206 2.33341C14.5506 1.84779 14.8694 1.24001 14.9962 0.565024C15.0768 0.137435 14.8656 -0.0274928 14.3239 0.0152662L14.3086 0.00610352Z" fill="black"/>
</svg>
