<svg width="21" height="20" viewBox="0 0 21 20" fill="none" xmlns="http://www.w3.org/2000/svg">
<path d="M18.6626 19.878L11.748 12.9634C11.1992 13.4024 10.5681 13.75 9.85472 14.0061C9.14131 14.2622 8.38218 14.3902 7.57731 14.3902C5.58343 14.3902 3.89613 13.6995 2.51541 12.318C1.13469 10.9366 0.44397 9.24929 0.443238 7.25614C0.442506 5.26299 1.13323 3.57569 2.51541 2.19424C3.89759 0.812795 5.58489 0.12207 7.57731 0.12207C9.56972 0.12207 11.2574 0.812795 12.6403 2.19424C14.0232 3.57569 14.7136 5.26299 14.7114 7.25614C14.7114 8.06101 14.5833 8.82015 14.3272 9.53355C14.0711 10.247 13.7236 10.8781 13.2846 11.4268L20.1991 18.3414L18.6626 19.878ZM7.57731 12.1951C8.94924 12.1951 10.1156 11.7151 11.0763 10.7551C12.037 9.79514 12.517 8.62881 12.5163 7.25614C12.5155 5.88347 12.0356 4.71751 11.0763 3.75825C10.117 2.79899 8.95071 2.31863 7.57731 2.31717C6.20391 2.31571 5.03794 2.79607 4.07942 3.75825C3.12089 4.72044 2.64053 5.8864 2.63834 7.25614C2.63614 8.62588 3.1165 9.79221 4.07942 10.7551C5.04233 11.718 6.2083 12.198 7.57731 12.1951Z" fill="black" fill-opacity="0.4"/>
</svg>
